<svg width="448" height="333" viewBox="0 0 448 333" fill="none" xmlns="http://www.w3.org/2000/svg">
<g filter="url(#filter0_d_20_736)">
<path fill-rule="evenodd" clip-rule="evenodd" d="M104.046 151.432C95.6504 129.86 120.461 109.776 131.318 89.2719C139.411 73.9894 145.605 57.6764 159.302 47.0798C172.784 36.6492 189.522 30.9208 206.564 31.0585C222.909 31.1905 236.574 40.7975 251.305 47.823C268.67 56.1054 286.86 61.8852 300.198 75.7163C320.068 96.3201 346.272 117.272 345.879 145.891C345.475 175.239 323.865 203.064 298.248 217.594C273.953 231.375 243.317 227.098 216.553 219.249C195.354 213.033 185.09 190.262 166.19 178.869C146.32 166.892 112.448 173.019 104.046 151.432Z" fill="white"/>
</g>
<defs>
<filter id="filter0_d_20_736" x="0.342773" y="-66.944" width="447.54" height="399.506" filterUnits="userSpaceOnUse" color-interpolation-filters="sRGB">
<feFlood flood-opacity="0" result="BackgroundImageFix"/>
<feColorMatrix in="SourceAlpha" type="matrix" values="0 0 0 0 0 0 0 0 0 0 0 0 0 0 0 0 0 0 127 0" result="hardAlpha"/>
<feOffset dy="4"/>
<feGaussianBlur stdDeviation="51"/>
<feComposite in2="hardAlpha" operator="out"/>
<feColorMatrix type="matrix" values="0 0 0 0 0 0 0 0 0 0 0 0 0 0 0 0 0 0 0.25 0"/>
<feBlend mode="normal" in2="BackgroundImageFix" result="effect1_dropShadow_20_736"/>
<feBlend mode="normal" in="SourceGraphic" in2="effect1_dropShadow_20_736" result="shape"/>
</filter>
</defs>
</svg>
