<svg width="254" height="183" viewBox="0 0 254 183" fill="none" xmlns="http://www.w3.org/2000/svg">
<g clip-path="url(#clip0_18_429)">
<path opacity="0.1" d="M147.578 32.2735C131.295 31.7077 115.774 26.4515 100.975 20.702C86.1766 14.9525 71.509 8.58103 55.6067 5.53442C45.3825 3.57272 33.6896 3.29681 25.4531 8.77744C17.5253 14.05 14.9646 23.1524 13.5871 31.5978C12.5512 37.9529 11.9501 44.64 14.7822 50.5906C16.7536 54.7198 20.2521 58.1919 22.6725 62.1481C31.0914 75.9127 25.1397 92.8877 16.0146 106.339C11.735 112.652 6.77019 118.659 3.46811 125.372C0.166042 132.084 -1.36339 139.775 1.5271 146.621C4.39185 153.401 11.2158 158.503 18.6104 162.088C33.6288 169.362 51.3248 171.443 68.5811 172.635C106.779 175.247 145.184 174.115 183.483 172.983C197.657 172.563 211.894 172.139 225.836 169.944C233.58 168.726 241.575 166.794 247.197 162.132C254.332 156.212 256.102 146.191 251.32 138.767C243.299 126.319 221.122 123.225 215.514 109.865C212.429 102.512 215.598 94.3187 220.084 87.4983C229.702 72.8685 245.829 60.032 246.678 43.3072C247.263 31.8199 239.51 20.3185 227.523 14.8823C214.96 9.1796 197.537 9.89975 188.27 19.3248C178.726 29.0352 161.954 32.7715 147.578 32.2735Z" fill="#0970E9"/>
<path d="M56.6521 169.525C56.6521 169.525 43.7899 159.803 41.3601 147.437C40.3748 142.243 37.7318 137.508 33.8275 133.943C31.9598 132.266 29.9426 130.764 27.801 129.454" stroke="#535461" stroke-width="2" stroke-miterlimit="10"/>
<path d="M26.2272 121.663C27.3544 123.188 27.8642 129.648 27.8642 129.648C27.8642 129.648 21.8376 127.275 20.7081 125.753C20.1657 125.021 19.9363 124.104 20.0703 123.203C20.2042 122.302 20.6907 121.491 21.4225 120.949C22.1544 120.407 23.0718 120.177 23.9728 120.311C24.8739 120.445 25.6848 120.932 26.2272 121.663Z" fill="#0970E9"/>
<path d="M37.0361 126.732C37.153 128.624 34.0731 134.324 34.0731 134.324C34.0731 134.324 30.301 129.054 30.1817 127.163C30.1363 126.261 30.4482 125.378 31.0497 124.704C31.6512 124.031 32.4939 123.621 33.3952 123.565C34.2965 123.508 35.1839 123.809 35.8649 124.402C36.546 124.995 36.9659 125.832 37.0337 126.732H37.0361Z" fill="#0970E9"/>
<path d="M47.5129 141.304C46.6616 142.997 41.1215 146.364 41.1215 146.364C41.1215 146.364 40.5299 139.91 41.3811 138.217C41.8001 137.421 42.515 136.822 43.3719 136.547C44.2288 136.273 45.1592 136.346 45.9628 136.75C46.7665 137.155 47.3792 137.858 47.6691 138.71C47.959 139.562 47.9029 140.493 47.5129 141.304Z" fill="#0970E9"/>
<path d="M52.9595 154.107C52.4052 155.92 47.5152 160.173 47.5152 160.173C47.5152 160.173 45.8385 153.913 46.3927 152.099C46.6591 151.228 47.2605 150.499 48.0646 150.072C48.8688 149.645 49.8097 149.554 50.6805 149.82C51.5513 150.087 52.2806 150.688 52.708 151.492C53.1354 152.296 53.2258 153.237 52.9595 154.107Z" fill="#0970E9"/>
<path d="M28.4979 138.907C30.3687 139.16 36.283 136.489 36.283 136.489C36.283 136.489 31.2925 132.356 29.4123 132.103C28.5098 131.982 27.5962 132.224 26.8723 132.776C26.1485 133.329 25.6737 134.146 25.5524 135.048C25.4312 135.95 25.6734 136.864 26.2258 137.587C26.7781 138.311 27.5954 138.786 28.4979 138.907Z" fill="#0970E9"/>
<path d="M35.0576 153.804C36.9284 153.483 41.7623 149.169 41.7623 149.169C41.7623 149.169 35.7615 146.719 33.893 147.039C33.4456 147.113 33.0172 147.274 32.6325 147.513C32.2477 147.753 31.9143 148.067 31.6514 148.436C31.3885 148.805 31.2014 149.223 31.1008 149.665C31.0002 150.107 30.9882 150.564 31.0654 151.011C31.1426 151.458 31.3075 151.885 31.5506 152.267C31.7937 152.65 32.1102 152.98 32.4818 153.24C32.8534 153.5 33.2728 153.683 33.7157 153.78C34.1586 153.876 34.6162 153.885 35.0622 153.804H35.0576Z" fill="#0970E9"/>
<path d="M43.418 167.409C45.3146 167.409 50.8103 163.975 50.8103 163.975C50.8103 163.975 45.3123 160.544 43.4157 160.544C42.5052 160.544 41.632 160.906 40.9882 161.55C40.3444 162.193 39.9827 163.067 39.9827 163.977C39.9827 164.887 40.3444 165.76 40.9882 166.404C41.632 167.048 42.5052 167.409 43.4157 167.409H43.418Z" fill="#0970E9"/>
<path d="M181.602 85.4383C181.602 85.4383 189.53 71.3978 201.48 67.3528C206.498 65.6866 210.841 62.4386 213.856 58.096C215.27 56.0199 216.491 53.8182 217.502 51.5188" stroke="#535461" stroke-width="2" stroke-miterlimit="10"/>
<path d="M225.004 48.9469C223.643 50.2656 217.308 51.6311 217.308 51.6311C217.308 51.6311 218.863 45.3415 220.224 44.0204C220.881 43.4054 221.753 43.073 222.653 43.0946C223.553 43.1163 224.408 43.4902 225.034 44.1361C225.661 44.7819 226.009 45.6479 226.003 46.5477C225.998 47.4475 225.639 48.309 225.004 48.9469Z" fill="#0970E9"/>
<path d="M221.421 60.3172C219.55 60.6866 213.5 58.3906 213.5 58.3906C213.5 58.3906 218.224 53.9481 220.084 53.5857C220.53 53.4866 220.992 53.4777 221.442 53.5595C221.891 53.6413 222.32 53.8122 222.703 54.062C223.086 54.3118 223.416 54.6356 223.672 55.0144C223.928 55.3932 224.105 55.8193 224.195 56.2677C224.284 56.7161 224.282 57.1778 224.191 57.6257C224.099 58.0735 223.918 58.4986 223.66 58.8758C223.402 59.253 223.071 59.5748 222.686 59.8223C222.302 60.0699 221.872 60.2381 221.421 60.3172Z" fill="#0970E9"/>
<path d="M208.381 72.6346C206.59 72.015 202.519 66.9739 202.519 66.9739C202.519 66.9739 208.833 65.529 210.629 66.1486C211.06 66.2917 211.459 66.5191 211.802 66.8175C212.145 67.116 212.425 67.4796 212.626 67.8872C212.828 68.2948 212.946 68.7383 212.974 69.192C213.003 69.6457 212.941 70.1005 212.792 70.53C212.643 70.9595 212.41 71.3552 212.107 71.6941C211.804 72.0329 211.437 72.3083 211.027 72.5041C210.616 72.6999 210.171 72.8122 209.717 72.8346C209.263 72.857 208.809 72.789 208.381 72.6346Z" fill="#0970E9"/>
<path d="M196.398 79.7333C194.528 79.4246 189.673 75.1341 189.673 75.1341C189.673 75.1341 195.657 72.6417 197.526 72.9503C198.425 73.0982 199.229 73.5972 199.76 74.3376C200.291 75.078 200.507 75.9991 200.359 76.8983C200.211 77.7974 199.712 78.601 198.971 79.1322C198.231 79.6635 197.31 79.8788 196.41 79.7309L196.398 79.7333Z" fill="#0970E9"/>
<path d="M208.218 53.4734C208.215 55.3697 211.655 60.8714 211.655 60.8714C211.655 60.8714 215.091 55.3767 215.091 53.4828C215.103 53.0247 215.023 52.5688 214.856 52.142C214.689 51.7153 214.438 51.3263 214.118 50.998C213.798 50.6698 213.416 50.4089 212.993 50.2307C212.571 50.0526 212.117 49.9608 211.659 49.9608C211.201 49.9608 210.747 50.0526 210.324 50.2307C209.902 50.4089 209.52 50.6698 209.2 50.998C208.88 51.3263 208.629 51.7153 208.462 52.142C208.295 52.5688 208.215 53.0247 208.227 53.4828L208.218 53.4734Z" fill="#0970E9"/>
<path d="M194.32 61.9516C194.885 63.7613 199.806 67.9817 199.806 67.9817C199.806 67.9817 201.443 61.7107 200.872 59.901C200.576 59.0625 199.967 58.3716 199.171 57.9737C198.376 57.5757 197.457 57.5019 196.609 57.7676C195.76 58.0334 195.048 58.618 194.622 59.3984C194.195 60.1789 194.089 61.0941 194.324 61.9516H194.32Z" fill="#0970E9"/>
<path d="M181.955 72.0454C182.208 73.9159 186.343 78.9125 186.343 78.9125C186.343 78.9125 189.011 73.0087 188.758 71.1311C188.708 70.6762 188.568 70.2359 188.345 69.8362C188.122 69.4364 187.822 69.0852 187.461 68.8032C187.1 68.5213 186.687 68.3142 186.245 68.1943C185.804 68.0744 185.342 68.0441 184.889 68.1051C184.435 68.166 183.998 68.3171 183.604 68.5494C183.209 68.7816 182.865 69.0904 182.592 69.4575C182.319 69.8247 182.122 70.2427 182.012 70.6872C181.903 71.1316 181.884 71.5934 181.955 72.0454Z" fill="#0970E9"/>
<path opacity="0.25" d="M225.004 48.9469C223.643 50.2656 217.308 51.6311 217.308 51.6311C217.308 51.6311 218.863 45.3415 220.224 44.0204C220.881 43.4054 221.753 43.073 222.653 43.0946C223.553 43.1163 224.408 43.4902 225.034 44.1361C225.661 44.7819 226.009 45.6479 226.003 46.5477C225.998 47.4475 225.639 48.309 225.004 48.9469Z" fill="black"/>
<path opacity="0.25" d="M221.421 60.3172C219.55 60.6866 213.5 58.3906 213.5 58.3906C213.5 58.3906 218.224 53.9481 220.084 53.5857C220.53 53.4866 220.992 53.4777 221.442 53.5595C221.891 53.6413 222.32 53.8122 222.703 54.062C223.086 54.3118 223.416 54.6356 223.672 55.0144C223.928 55.3932 224.105 55.8193 224.195 56.2677C224.284 56.7161 224.282 57.1778 224.191 57.6257C224.099 58.0735 223.918 58.4986 223.66 58.8758C223.402 59.253 223.071 59.5748 222.686 59.8223C222.302 60.0699 221.872 60.2381 221.421 60.3172Z" fill="black"/>
<path opacity="0.25" d="M208.381 72.6346C206.59 72.015 202.519 66.9739 202.519 66.9739C202.519 66.9739 208.833 65.529 210.629 66.1486C211.06 66.2917 211.459 66.5191 211.802 66.8175C212.145 67.116 212.425 67.4796 212.626 67.8872C212.828 68.2948 212.946 68.7383 212.974 69.192C213.003 69.6457 212.941 70.1005 212.792 70.53C212.643 70.9595 212.41 71.3552 212.107 71.6941C211.804 72.0329 211.437 72.3083 211.027 72.5041C210.616 72.6999 210.171 72.8122 209.717 72.8346C209.263 72.857 208.809 72.789 208.381 72.6346Z" fill="black"/>
<path opacity="0.25" d="M196.398 79.7333C194.528 79.4246 189.673 75.1341 189.673 75.1341C189.673 75.1341 195.657 72.6417 197.526 72.9503C198.425 73.0982 199.229 73.5972 199.76 74.3376C200.291 75.078 200.507 75.9991 200.359 76.8983C200.211 77.7974 199.712 78.601 198.971 79.1322C198.231 79.6635 197.31 79.8788 196.41 79.7309L196.398 79.7333Z" fill="black"/>
<path opacity="0.25" d="M208.218 53.4734C208.215 55.3697 211.655 60.8714 211.655 60.8714C211.655 60.8714 215.091 55.3767 215.091 53.4828C215.103 53.0247 215.023 52.5688 214.856 52.142C214.689 51.7153 214.438 51.3263 214.118 50.998C213.798 50.6698 213.416 50.4089 212.993 50.2307C212.571 50.0526 212.117 49.9608 211.659 49.9608C211.201 49.9608 210.747 50.0526 210.324 50.2307C209.902 50.4089 209.52 50.6698 209.2 50.998C208.88 51.3263 208.629 51.7153 208.462 52.142C208.295 52.5688 208.215 53.0247 208.227 53.4828L208.218 53.4734Z" fill="black"/>
<path opacity="0.25" d="M194.32 61.9516C194.885 63.7613 199.806 67.9817 199.806 67.9817C199.806 67.9817 201.443 61.7107 200.872 59.901C200.576 59.0625 199.967 58.3716 199.171 57.9737C198.376 57.5757 197.457 57.5019 196.609 57.7676C195.76 58.0334 195.048 58.618 194.622 59.3984C194.195 60.1789 194.089 61.0941 194.324 61.9516H194.32Z" fill="black"/>
<path opacity="0.25" d="M181.955 72.0454C182.208 73.9159 186.343 78.9125 186.343 78.9125C186.343 78.9125 189.011 73.0087 188.758 71.1311C188.708 70.6762 188.568 70.2359 188.345 69.8362C188.122 69.4364 187.822 69.0852 187.461 68.8032C187.1 68.5213 186.687 68.3142 186.245 68.1943C185.804 68.0744 185.342 68.0441 184.889 68.1051C184.435 68.166 183.998 68.3171 183.604 68.5494C183.209 68.7816 182.865 69.0904 182.592 69.4575C182.319 69.8247 182.122 70.2427 182.012 70.6872C181.903 71.1316 181.884 71.5934 181.955 72.0454Z" fill="black"/>
<path d="M182.058 85.1602C182.058 85.1602 183.616 69.1111 192.891 60.5769C196.803 57.0201 199.456 52.2915 200.454 47.0998C200.908 44.6317 201.134 42.1271 201.129 39.6177" stroke="#535461" stroke-width="2" stroke-miterlimit="10"/>
<path d="M206.943 34.2024C206.241 35.9607 200.994 39.7766 200.994 39.7766C200.994 39.7766 199.867 33.3957 200.575 31.6375C200.916 30.7932 201.579 30.1189 202.417 29.7631C203.255 29.4073 204.201 29.399 205.045 29.74C205.89 30.0811 206.564 30.7436 206.92 31.5818C207.276 32.4199 207.284 33.3651 206.943 34.2094V34.2024Z" fill="#0970E9"/>
<path d="M208.278 46.0616C206.728 47.1512 200.257 47.5089 200.257 47.5089C200.257 47.5089 202.778 41.5373 204.329 40.4477C204.696 40.1726 205.115 39.974 205.561 39.8637C206.007 39.7535 206.471 39.7338 206.924 39.8058C207.378 39.8778 207.812 40.0402 208.202 40.2831C208.592 40.5261 208.929 40.8448 209.193 41.2203C209.457 41.5958 209.644 42.0206 209.741 42.4694C209.838 42.9182 209.844 43.3819 209.759 43.8331C209.674 44.2843 209.499 44.7138 209.244 45.0962C208.99 45.4786 208.662 45.8061 208.278 46.0593V46.0616Z" fill="#0970E9"/>
<path d="M201.342 62.611C199.453 62.77 193.686 59.8052 193.686 59.8052C193.686 59.8052 198.877 55.9239 200.767 55.7649C201.674 55.6886 202.575 55.9759 203.27 56.5634C203.966 57.151 204.4 57.9908 204.476 58.898C204.552 59.8052 204.265 60.7056 203.677 61.401C203.09 62.0965 202.25 62.53 201.342 62.6063V62.611Z" fill="#0970E9"/>
<path d="M193.272 73.9487C191.436 74.4163 185.253 72.4826 185.253 72.4826C185.253 72.4826 189.712 67.7806 191.548 67.3036C192.43 67.0751 193.366 67.206 194.15 67.6675C194.935 68.129 195.505 68.8834 195.733 69.7645C195.962 70.6457 195.831 71.5816 195.369 72.3663C194.908 73.1509 194.153 73.7201 193.272 73.9487Z" fill="#0970E9"/>
<path d="M193.435 45.1544C194.203 46.8869 199.567 50.5321 199.567 50.5321C199.567 50.5321 200.479 44.1162 199.712 42.3837C199.33 41.5731 198.646 40.9441 197.806 40.6311C196.966 40.3181 196.037 40.3459 195.217 40.7086C194.398 41.0714 193.753 41.7402 193.42 42.5722C193.087 43.4042 193.092 44.3335 193.435 45.1614V45.1544Z" fill="#0970E9"/>
<path d="M184.165 58.5332C185.416 59.9571 191.623 61.823 191.623 61.823C191.623 61.823 190.575 55.4281 189.324 54.0042C189.029 53.6583 188.668 53.3745 188.262 53.1693C187.856 52.9641 187.413 52.8417 186.959 52.809C186.506 52.7764 186.05 52.8342 185.619 52.9791C185.188 53.1241 184.79 53.3533 184.448 53.6533C184.106 53.9534 183.827 54.3184 183.628 54.7271C183.428 55.1359 183.312 55.5801 183.286 56.0342C183.259 56.4882 183.324 56.9429 183.475 57.372C183.626 57.801 183.86 58.1957 184.165 58.5332Z" fill="#0970E9"/>
<path d="M176.941 72.7772C177.933 74.3906 183.735 77.2782 183.735 77.2782C183.735 77.2782 183.784 70.7992 182.8 69.1835C182.31 68.4375 181.548 67.9117 180.677 67.7176C179.805 67.5236 178.893 67.6765 178.132 68.1439C177.372 68.6114 176.823 69.3566 176.603 70.2216C176.383 71.0866 176.509 72.0033 176.953 72.7772H176.941Z" fill="#0970E9"/>
<path d="M170.132 22.3083C170.52 20.8843 170.988 19.4534 171.315 18.0107C170.922 19.4534 170.452 20.889 170.132 22.3083Z" fill="url(#paint0_linear_18_429)"/>
<path d="M168.392 36.0239C168.359 35.9677 168.336 35.9116 168.31 35.8602C168.31 35.8368 168.286 35.8181 168.277 35.7947C168.226 35.8188 168.174 35.8398 168.12 35.8578C168.017 35.8976 167.912 35.935 167.805 35.9654C167.697 35.9958 167.653 36.0122 167.571 36.0309C167.503 36.0542 167.433 36.0722 167.363 36.0846L167.381 36.1267C167.468 36.108 167.552 36.0917 167.639 36.0683L167.662 36.3582C167.76 36.3582 167.851 36.3442 167.94 36.3442C167.982 36.3419 168.025 36.3419 168.067 36.3442C168.249 36.3442 168.408 36.3442 168.534 36.3442C168.485 36.239 168.434 36.1291 168.392 36.0239ZM215.865 111.576C214.766 110.096 212.572 94.2111 212.572 94.2111C212.572 94.2111 208.257 82.9155 209.434 78.4075C210.61 73.8995 206.221 62.3655 206.221 62.3655C206.221 62.3655 203.321 61.1052 203.164 59.2347C203.164 59.2347 191.324 55.4936 190.77 52.6878C190.321 50.3871 182.977 48.7364 180.339 48.215C179.535 44.9696 178.726 41.9417 178.129 40.2886C177.968 39.7742 177.816 39.33 177.676 38.9793C176.668 36.4073 173.553 36.1735 171.294 36.3793C171.196 35.9409 171.014 35.5256 170.758 35.1564C170.721 35.0295 170.647 34.9164 170.545 34.8314C170.497 34.7901 170.445 34.7526 170.391 34.7192C170.35 34.6434 170.296 34.5753 170.232 34.5181C170.168 34.4603 170.097 34.4101 170.022 34.3684C169.967 34.339 169.911 34.3133 169.853 34.2913C169.718 34.2397 169.578 34.2013 169.435 34.1767C169.268 34.1425 169.099 34.1206 168.93 34.1112C169.342 33.9307 169.71 33.6617 170.008 33.3233C170.21 33.0857 170.36 32.8086 170.45 32.5096C170.524 32.261 170.557 32.002 170.548 31.7427C170.487 31.8495 170.417 31.9505 170.337 32.0443C170.436 31.0085 169.888 29.9563 169.575 28.9252C169.195 27.5828 169.125 26.1719 169.369 24.7984C169.683 22.7268 170.459 20.6318 170.985 18.5228C170.986 18.5111 170.986 18.4994 170.985 18.4877C171.261 17.4403 171.432 16.3681 171.495 15.2868C171.586 13.1053 171.027 10.9285 170.129 8.94106C169.332 7.18043 168.155 5.44786 166.355 4.73239C165.017 4.19227 163.518 4.27878 162.077 4.18993C158.846 3.98885 155.763 2.85251 152.69 1.81905C149.618 0.785588 146.456 -0.154349 143.222 0.0256888C139.987 0.205726 136.659 1.76527 135.184 4.62717C134.716 5.52034 134.447 6.51406 133.888 7.35345C132.841 8.93638 130.965 9.72901 129.401 10.8209C127.836 11.9128 126.459 13.463 125.893 15.3125C125.584 16.3089 125.54 17.3688 125.766 18.3872C125.817 18.6172 125.883 18.8437 125.963 19.0652C126.185 19.683 126.531 20.2488 126.98 20.7277C127.319 21.0816 127.708 21.3834 128.135 21.6232C128.672 21.9205 129.246 22.1439 129.843 22.2872C129.821 22.3574 129.8 22.4322 129.777 22.5047C129.74 22.6239 129.707 22.7385 129.672 22.8671C129.595 23.1547 129.522 23.4469 129.461 23.7415C129.459 23.7625 129.459 23.7837 129.461 23.8047C129.174 25.1346 129.03 26.4914 129.031 27.852C129.031 28.4955 129.063 29.1386 129.129 29.7787C130.065 39.2669 137.899 46.7513 147.578 47.2376C147.91 47.254 148.245 47.2633 148.584 47.2633C148.738 47.2633 148.89 47.2633 149.052 47.2633C149.204 47.4644 149.353 47.6702 149.496 47.8713C149.639 48.0723 149.77 48.2781 149.894 48.4792L149.554 48.1285L149.215 47.8175C149.123 47.9436 149.021 48.0617 148.909 48.1705C148.688 48.0928 148.462 48.0287 148.233 47.9788C147.263 47.7637 145.785 47.6842 143.839 48.2711C142.05 48.8065 139.863 49.9078 137.305 52.0004L124.838 59.4825L118.094 63.5836L115.664 69.5225C115.664 69.5225 113.837 76.5791 111.805 84.6644C111.726 84.6878 111.648 84.7112 111.571 84.7392C111.407 84.7205 111.241 84.7111 111.075 84.7112C109.896 84.7084 108.762 85.1626 107.911 85.9783C107.06 86.7941 106.558 87.9079 106.511 89.0858C102.469 93.996 102.24 98.9061 103.19 101.16C103.276 101.371 103.384 101.573 103.512 101.761C104.135 102.659 105.297 104.974 106.475 107.44C106.445 107.644 106.426 107.814 106.417 107.943C106.415 107.985 106.415 108.027 106.417 108.069C106.417 108.069 107.119 118.663 104.78 121.701C104.268 122.362 104.345 123.232 104.78 124.196C106.347 127.661 112.542 132.288 112.542 132.288C112.542 132.288 119.971 132.248 124.111 131.797C124.099 132.213 124.09 132.627 124.08 133.031C123.987 137.118 123.987 140.544 123.987 140.544L123.832 144.83C123.832 144.83 122.429 153.862 121.728 156.352C121.286 157.914 121.795 172.375 122.24 183.007H195.442C196.303 176.717 195.089 157.608 195.089 157.608C195.089 157.608 193.936 152.667 193.894 148.36C193.892 148.356 193.89 148.35 193.89 148.345C193.89 148.34 193.892 148.335 193.894 148.33C193.894 147.953 193.894 147.586 193.908 147.226L194.439 147.208L195.393 147.175H195.479C195.479 147.175 195.503 147.086 195.557 146.941C195.683 146.58 195.855 146.237 196.069 145.919C196.476 145.318 197.112 144.729 198.068 144.689C198.597 144.668 199.415 144.24 200.339 143.609C200.345 143.611 200.352 143.611 200.358 143.609C202.844 141.928 206.129 138.825 206.927 138.316C208.024 137.614 213.276 132.938 213.276 132.938C213.276 132.938 214.059 131.946 214.894 130.752L214.925 130.71C215.963 129.213 217.067 127.424 216.796 126.861C216.328 125.851 217.109 123.436 217.109 123.436C219.548 118.972 216.964 113.057 215.865 111.576ZM170.644 39.6597C170.666 39.7295 170.68 39.8017 170.686 39.8748C170.627 39.7976 170.569 39.7158 170.51 39.641L170.454 39.5662L170.415 39.51L170.503 39.3884C170.503 39.3884 170.503 39.3885 170.503 39.4048C170.565 39.4806 170.613 39.567 170.644 39.6597ZM169.858 37.5881C169.603 37.6395 169.402 37.6863 169.271 37.7214C169.105 37.4267 168.946 37.1321 168.803 36.8329C169.178 37.0503 169.531 37.3032 169.858 37.5881ZM169.418 37.9575C169.418 37.9529 169.418 37.9481 169.418 37.9435L169.437 37.9575C169.533 38.0206 169.626 38.0814 169.713 38.1446C169.79 38.2007 169.86 38.2544 169.93 38.3106C169.884 38.3924 169.832 38.4766 169.781 38.5444C169.699 38.4158 169.622 38.2919 169.547 38.1633C169.5 38.1118 169.458 38.0417 169.418 37.9575ZM168.015 35.0722C168.467 35.0277 168.922 35.0277 169.374 35.0722C169.437 35.0722 169.493 35.0839 169.549 35.0933C169.676 35.1129 169.801 35.145 169.921 35.1891C170.197 35.5757 170.368 36.028 170.415 36.5008L170.288 36.5195L170.164 36.5429C169.93 36.5827 169.697 36.6224 169.514 36.6598L169.28 36.7089C168.969 36.7767 168.789 36.8282 168.782 36.8305C168.752 36.7674 168.721 36.7089 168.689 36.6481C168.637 36.5476 168.583 36.4447 168.537 36.3442C168.49 36.2436 168.429 36.1291 168.38 36.0239C168.347 35.9677 168.324 35.9116 168.298 35.8602C168.298 35.8368 168.275 35.8181 168.265 35.7947C168.252 35.7699 168.24 35.7441 168.23 35.7176C168.088 35.4276 167.957 35.1377 167.83 34.8524C167.816 34.8244 167.805 34.794 167.793 34.7659L167.971 34.7542V34.815L168.015 35.0722ZM112.219 180.117C112.2 176.636 111.948 172.869 111.246 169.333C110.947 167.83 110.638 166.327 110.325 164.849C110.245 164.479 110.168 164.115 110.091 163.75L109.371 163.846H109.305C107.341 154.584 105.287 146.424 105.287 146.424C105.287 146.424 101.209 130.855 101.681 129.613C101.742 129.452 101.665 129.017 101.492 128.378C100.505 124.838 96.3845 115.084 94.9439 111.75C94.9439 111.735 94.9322 111.719 94.9275 111.707C94.6937 111.149 94.5253 110.772 94.4739 110.662L94.813 105.687L94.8317 105.387L94.8761 104.751L94.8574 104.735L94.8761 104.44C94.8761 104.44 91.3168 101.522 85.2879 99.4158C85.0541 99.3316 84.8062 99.2498 84.5606 99.1703C84.8623 97.1571 85.2622 94.8844 85.7837 92.6702C85.8328 92.4481 85.8866 92.233 85.9427 92.0155C85.9918 91.7981 86.048 91.5877 86.1041 91.3749C86.193 91.0288 86.2888 90.6875 86.3871 90.3508C86.7121 90.2479 87.0325 90.1333 87.3482 90.0117L87.4698 89.965C91.3591 88.4519 94.5682 85.581 96.5031 81.884C98.4379 78.187 98.9674 73.9142 97.9934 69.8569C97.4381 67.5558 96.4125 65.3945 94.9813 63.5088C94.8738 63.3638 94.7592 63.2189 94.6446 63.0762C94.53 62.9336 94.392 62.7746 94.2634 62.6297C94.9392 61.0935 95.7367 59.6322 95.8022 58.1381C95.8139 57.9489 95.8139 57.7591 95.8022 57.5699V57.5465C95.7157 56.5855 95.29 55.6129 94.2985 54.5911C92.8509 53.0924 90.7906 52.3325 88.7303 51.9677C86.67 51.603 84.57 51.5936 82.498 51.3481C79.0626 50.9366 75.7161 49.8774 72.2808 49.5524C68.0493 49.1606 63.7891 49.8862 59.926 51.6567C57.37 52.8258 54.7812 54.8693 54.6268 57.6728C54.5005 59.9899 56.1142 62.2111 55.7073 64.5002C55.3027 66.7495 53.0109 68.5195 53.212 70.7945C53.2892 71.683 53.7452 72.478 54.3158 73.1864C54.5122 73.4202 54.7204 73.654 54.9355 73.8879C55.7681 74.7693 56.6848 75.6158 57.1502 76.7264C57.1689 76.7731 57.1876 76.8199 57.2039 76.8667C57.5992 77.9633 57.4214 79.3498 56.4439 79.9787C56.4493 79.9829 56.4534 79.9886 56.4556 79.9951C56.4696 80.0138 56.4837 80.0278 56.4954 80.0465C56.4968 80.0428 56.4968 80.0386 56.4954 80.0349C56.8419 80.4457 57.3092 80.7369 57.8307 80.8672L58.0295 80.928C57.8681 81.1034 57.7161 81.2858 57.5617 81.4775L57.4612 81.6108C57.2035 81.9572 56.9691 82.3204 56.7596 82.698C56.6403 82.9084 56.5258 83.1189 56.4299 83.3293C56.1093 83.9707 55.8772 84.6527 55.74 85.3565C55.4898 86.9043 55.8429 88.5177 55.464 90.0328C54.9963 91.9033 53.516 93.3389 52.6811 95.0762C51.1003 98.3496 51.9959 102.191 52.314 105.806C52.7466 110.716 52.045 115.647 51.3458 120.525C50.9747 123.118 50.6037 125.715 50.2326 128.313C49.2972 134.835 48.3618 141.357 47.4263 147.879C47.0849 150.268 46.6803 152.789 45.0878 154.634H45.1041C45.1041 154.634 45.1041 154.648 45.0878 154.652C45.5658 154.861 46.0743 154.992 46.5938 155.04C48.6728 155.248 50.8757 154.243 52.7466 153.144C54.2282 152.288 55.6313 151.303 56.9397 150.2C56.7479 150.902 56.5421 151.666 56.3223 152.489C56.323 152.497 56.323 152.505 56.3223 152.513C53.682 162.567 49.4352 180.999 49.4352 180.999C49.4352 180.999 49.0493 181.801 48.5489 182.995H114.497C113.725 182.06 113.007 181.165 112.446 180.442L112.219 180.117ZM63.3895 87.1522C63.4059 87.1241 63.4175 87.0984 63.4339 87.0727C63.4339 87.1475 63.4339 87.22 63.4339 87.2901C63.4339 87.3603 63.4339 87.4234 63.4339 87.4889C63.4339 87.5543 63.4339 87.5473 63.4339 87.5801C63.4339 87.6759 63.4129 87.7718 63.3965 87.8677C63.3965 87.8677 63.3965 87.8793 63.3965 87.8887L63.6304 87.9752L63.9016 88.0874C65.5043 88.7203 67.1273 89.2932 68.7706 89.806C68.9389 89.8598 69.1096 89.9112 69.2804 89.9603L69.3154 90.2502C69.3575 90.5472 69.3973 90.8488 69.4347 91.1504C69.4347 91.1504 69.4347 91.1645 69.4347 91.1738C69.5399 92.0085 69.6428 92.8409 69.734 93.6546C69.734 93.6546 65.4404 92.0179 65.4942 94.5033C65.4918 94.5477 65.4918 94.5922 65.4942 94.6366C65.4894 94.6957 65.4894 94.7552 65.4942 94.8143C65.534 96.7503 66.1396 97.8983 66.2613 98.4875C66.254 98.5119 66.2412 98.5343 66.2238 98.553C66.1201 98.7787 66.0843 99.0298 66.1209 99.2755C66.1169 99.6938 66.1497 100.112 66.2192 100.524C66.0929 100.601 65.9689 100.678 65.845 100.758C65.7514 100.816 65.6626 100.882 65.5714 100.947C64.9977 98.9576 64.2471 97.0233 63.3287 95.1674C62.6856 93.844 61.9629 92.4645 61.97 91.0125C61.97 90.9189 61.97 90.8231 61.9817 90.7272C62.0077 90.3064 62.0879 89.8907 62.2202 89.4903C62.274 89.3384 62.3324 89.1887 62.3979 89.0414C62.5508 88.6914 62.7217 88.3496 62.9101 88.0173C63.0317 87.7975 63.1603 87.5801 63.2842 87.3603C63.324 87.2948 63.3614 87.227 63.3988 87.1615L63.3895 87.1522ZM168.392 36.0239C168.359 35.9677 168.336 35.9116 168.31 35.8602C168.31 35.8368 168.286 35.8181 168.277 35.7947C168.226 35.8188 168.174 35.8398 168.12 35.8578C168.017 35.8976 167.912 35.935 167.805 35.9654C167.697 35.9958 167.653 36.0122 167.571 36.0309L167.363 36.0846L167.381 36.1267C167.468 36.108 167.552 36.0917 167.639 36.0683L167.662 36.3582C167.76 36.3582 167.851 36.3442 167.94 36.3442H168.067C168.249 36.3442 168.408 36.3442 168.534 36.3442C168.485 36.239 168.434 36.1291 168.392 36.0239Z" fill="url(#paint1_linear_18_429)"/>
<path d="M117.294 70.3667L115.891 70.9863C115.891 70.9863 106.744 106.512 106.744 109.383C106.744 112.255 126.138 128.231 126.138 128.231L129.164 107.81C129.164 107.81 124.819 60.979 117.294 70.3667Z" fill="#E8F5FF"/>
<path d="M159.835 59.0664L151.732 54.839C151.278 52.9045 150.472 51.0698 149.356 49.4262C148.17 47.7147 146.594 46.0335 144.629 45.1567C139.665 42.9308 165.63 31.2471 165.63 31.2471C166.039 32.6506 166.52 34.032 167.073 35.3856C168.41 38.6871 170.63 42.9565 173.49 44.1724C178.352 46.2416 159.835 59.0664 159.835 59.0664Z" fill="#FFC1C7"/>
<path opacity="0.1" d="M167.073 35.3856C165.963 39.2868 163.656 42.741 160.477 45.2603C157.298 47.7797 153.408 49.2369 149.356 49.4262C148.17 47.7147 146.594 46.0335 144.629 45.1567C139.665 42.9308 165.63 31.2471 165.63 31.2471C166.039 32.6506 166.52 34.032 167.073 35.3856Z" fill="black"/>
<path d="M167.802 29.4864C167.803 33.3125 166.669 37.0529 164.544 40.2346C162.419 43.4163 159.397 45.8963 155.862 47.361C152.327 48.8257 148.436 49.2093 144.683 48.4633C140.93 47.7173 137.482 45.8751 134.776 43.1698C132.07 40.4645 130.227 37.0176 129.48 33.2651C128.733 29.5125 129.117 25.6229 130.581 22.0881C132.046 18.5533 134.526 15.5321 137.708 13.4067C140.89 11.2813 144.631 10.1471 148.458 10.1475C151.001 10.1358 153.522 10.628 155.874 11.5956C158.226 12.5633 160.363 13.9873 162.162 15.7854C163.961 17.5835 165.385 19.72 166.353 22.0717C167.321 24.4233 167.814 26.9434 167.802 29.4864Z" fill="#FFC1C7"/>
<path d="M170.595 56.5832L165.319 68.8913L160.665 77.0607H145.768L141.423 65.8914L143.184 54.3082H154.561L161.907 53.8944L164.388 53.0667L165.988 53.9739L170.595 56.5832Z" fill="#575A89"/>
<path opacity="0.1" d="M168.778 40.1765C168.778 40.1765 172.068 40.8779 169.121 43.2932C166.175 45.7086 156.009 53.3894 156.009 53.3894C156.009 53.3894 159.58 56.5693 158.841 60.2939L170.672 53.7003L172.777 43.1506C172.777 43.1506 173.013 39.9801 168.778 40.1765Z" fill="black"/>
<path opacity="0.1" d="M158.336 53.3893L150.81 54.6308C150.81 54.6308 152.363 60.371 151.587 62.0007C151.563 62.0513 151.544 62.1037 151.528 62.1573L148.458 70.4554L150.759 76.9719L158.724 66.1112L156.009 62.0007C156.009 62.0007 158.878 58.1989 160.586 56.8801C162.293 55.5614 158.336 53.3893 158.336 53.3893Z" fill="black"/>
<path d="M158.336 53.069L150.81 54.3082C150.81 54.3082 152.363 60.0483 151.587 61.678C151.563 61.7287 151.544 61.7811 151.528 61.8347L148.458 70.1328L150.759 76.6492L158.724 65.7815L156.009 61.671C156.009 61.671 158.878 57.8692 160.586 56.5505C162.293 55.2318 158.336 53.069 158.336 53.069Z" fill="#DCE6F2"/>
<path d="M169.093 39.5569C169.093 39.5569 172.384 40.2583 169.435 42.6736C166.486 45.0889 156.009 53.3894 156.009 53.3894C156.009 53.3894 159.889 55.9496 159.152 59.672L170.983 53.0807L173.088 42.531C173.088 42.531 173.321 39.3605 169.093 39.5569Z" fill="#575A89"/>
<path opacity="0.1" d="M149.872 50.158C149.872 50.158 150.59 51.5001 153.759 53.92C153.759 53.92 148.483 56.7258 150.502 60.6703L142.431 58.566L141.189 54.687L149.872 50.158Z" fill="black"/>
<path d="M149.561 49.8494C149.561 49.8494 150.279 51.1915 153.448 53.6115C153.448 53.6115 148.172 56.4032 150.19 60.3594L142.122 58.255L140.881 54.3784L149.561 49.8494Z" fill="#575A89"/>
<path opacity="0.1" d="M170.595 56.5833L165.319 68.8913L160.674 77.0608H145.768L141.423 65.8914L143.182 54.3082H146.346C146.294 57.0111 147.281 60.1863 147.218 61.3671C147.111 63.3078 150.113 73.778 150.113 73.778C150.113 73.778 156.397 63.6164 158.878 62.7115C160.438 62.1434 163.743 57.4156 165.985 53.9739L170.595 56.5833Z" fill="black"/>
<path d="M191.378 121.352L190.842 122.026C190.842 122.026 194.722 141.496 193.648 145.917C193.466 146.714 193.362 147.527 193.337 148.344V148.379C193.148 152.878 194.507 158.716 194.507 158.716C194.507 158.716 195.592 175.925 194.974 183.002H122.333C121.908 172.537 121.449 158.978 121.866 157.474C122.567 154.994 123.97 145.994 123.97 145.994L124.125 141.729C124.125 141.729 124.125 137.607 124.251 133.015C124.305 130.95 124.384 128.783 124.499 126.861C124.646 124.443 124.852 122.407 125.135 121.406C125.309 120.648 125.41 119.874 125.434 119.096C125.434 119.024 125.434 118.949 125.448 118.874C125.448 118.64 125.472 118.388 125.481 118.128C125.481 118.056 125.481 117.983 125.481 117.894C125.526 116.388 125.509 114.602 125.46 112.75C125.46 112.65 125.46 112.547 125.46 112.444C125.42 111.055 125.362 109.638 125.296 108.291C125.093 104.083 124.829 100.524 124.829 100.524L115.907 70.9699L118.311 65.0497L124.983 60.9626L137.319 53.5156C143.336 48.5704 147.298 49.1643 148.808 49.7068C148.955 49.7568 149.099 49.8154 149.239 49.8821C149.286 49.9055 149.323 49.9242 149.358 49.9453C149.406 49.968 149.452 49.9946 149.496 50.0247C149.082 50.2237 148.723 50.5197 148.448 50.8875C148.139 51.3061 147.918 51.7835 147.801 52.2904C147.722 52.6046 147.666 52.9243 147.634 53.2467C147.604 53.5858 147.592 53.9365 147.592 54.2895C147.609 55.0638 147.675 55.8362 147.791 56.602C147.791 56.616 147.791 56.6347 147.791 56.6534C147.868 57.2005 147.964 57.736 148.058 58.2387C148.057 58.2472 148.057 58.2559 148.058 58.2644C148.165 58.8513 148.273 59.3937 148.345 59.8613C148.359 59.9455 148.371 60.0227 148.383 60.0952C148.434 60.4042 148.459 60.7171 148.455 61.0304C148.482 61.7869 148.583 62.5388 148.759 63.275C148.82 63.5837 148.89 63.9134 148.967 64.2571C149.073 64.7247 149.187 65.2344 149.311 65.7535C149.379 66.0387 149.452 66.3333 149.526 66.6256C149.554 66.7425 149.585 66.8594 149.613 66.9787L149.66 67.1634C150.158 69.1438 150.698 71.1149 151.03 72.3073C151.227 73.0088 151.35 73.4413 151.35 73.4413C151.35 73.4413 154.872 67.7479 157.683 64.5072C157.725 64.4605 157.763 64.4161 157.803 64.374C158.081 64.0537 158.355 63.7614 158.616 63.5042C159.189 62.9337 159.704 62.5268 160.118 62.3772C160.206 62.3448 160.291 62.3049 160.373 62.2579C161.523 61.6056 163.38 59.2371 165.118 56.7563C165.288 56.5225 165.454 56.2676 165.623 56.0268C166.009 55.4703 166.383 54.9115 166.736 54.376C167.007 53.9669 167.267 53.5694 167.512 53.1906C168.682 51.3715 169.505 50.0154 169.505 50.0154L171.128 49.9429L171.411 49.9289H171.6L178.969 49.5875C178.969 49.5875 179.287 49.6413 179.811 49.7465C179.839 49.7465 179.867 49.7465 179.898 49.7652C182.512 50.2843 189.776 51.928 190.22 54.2077C190.763 56.9995 202.479 60.7241 202.479 60.7241C202.633 62.5946 205.503 63.8269 205.503 63.8269C205.503 63.8269 209.848 75.3072 208.685 79.8058C207.537 84.2483 211.674 95.2376 211.784 95.5462L210.991 96.5469L191.378 121.352Z" fill="#E8F5FF"/>
<path opacity="0.1" d="M168.775 39.3604C168.775 39.3604 175.948 37.3262 177.578 41.5139C179.208 45.7015 182.853 62.6133 182.853 62.6133C182.853 62.6133 173.387 64.3973 170.906 62.6133C169.45 61.5545 167.649 61.0836 165.861 61.2946L160.508 64.9398L158.927 64.4722C158.927 64.4722 167.491 51.7433 169.353 47.4177C171.214 43.0921 171.843 41.1585 168.775 39.3604Z" fill="black"/>
<path d="M168.464 38.4251C168.464 38.4251 175.641 36.3909 177.278 40.5786C178.915 44.7662 182.554 61.678 182.554 61.678C182.554 61.678 173.09 63.462 170.606 61.678C169.152 60.6192 167.351 60.1482 165.564 60.3593L160.207 64.0045L158.626 63.5368C158.626 63.5368 167.19 50.808 169.051 46.4824C170.913 42.1568 171.532 40.2278 168.464 38.4251Z" fill="#E8F5FF"/>
<path opacity="0.1" d="M120.32 105.892C120.32 105.892 125.673 107.211 126.683 110.237C127.693 113.262 122.726 113.339 122.726 113.339C122.726 113.339 119.7 107.987 120.32 105.892Z" fill="black"/>
<path opacity="0.1" d="M140.259 128.231C140.259 128.231 127.149 155.071 130.175 157.631C133.201 160.191 140.259 128.231 140.259 128.231Z" fill="black"/>
<path opacity="0.1" d="M158.336 108.453C158.336 108.453 168.81 134.523 166.715 138.549C164.619 142.576 171.214 138.549 171.214 138.549L158.336 108.453Z" fill="black"/>
<path d="M172.922 134.205C172.922 134.205 137.544 135.912 147.864 146.927C158.184 157.942 179.362 147.395 179.362 147.395L172.922 134.205Z" fill="#FFC1C7"/>
<path opacity="0.1" d="M167.802 29.4864C167.806 32.0233 167.307 34.5358 166.336 36.8796C166.011 36.917 165.686 36.9404 165.373 36.9544C164.905 35.928 165.155 34.7425 165.164 33.6132C165.174 32.4839 164.757 31.1558 163.67 30.8518C161.502 30.2416 160.005 34.2936 157.868 33.5618C156.231 33.0053 156.659 30.5222 155.717 29.0889C154.971 27.9549 153.476 27.6345 152.314 26.9237C149.842 25.4063 149.917 22.9793 148.769 20.6832C147.567 18.2773 145.027 18.9881 142.822 20.4073C141.147 21.4875 139.702 22.9349 137.911 23.7953C136.36 24.5435 134.618 24.8147 132.899 24.8545C131.841 24.8955 130.782 24.7837 129.756 24.5225C130.963 19.985 133.78 16.0415 137.68 13.4272C141.581 10.8129 146.3 9.70635 150.957 10.3139C155.613 10.9215 159.89 13.2017 162.989 16.7293C166.088 20.257 167.798 24.7911 167.8 29.4864H167.802Z" fill="black"/>
<path d="M142.829 19.7878C141.152 20.868 139.709 22.313 137.918 23.1781C136.367 23.924 134.625 24.1952 132.906 24.2349C130.801 24.2817 128.535 23.9123 127.097 22.3925C125.776 20.9896 125.46 18.8315 126.019 16.9913C126.578 15.1512 127.918 13.6244 129.492 12.5185C131.066 11.4125 132.892 10.6479 133.935 9.06501C134.487 8.22796 134.754 7.24126 135.212 6.35042C136.678 3.50022 139.976 1.95704 143.163 1.76531C146.351 1.57358 149.51 2.52287 152.545 3.55166C155.581 4.58044 158.64 5.71211 161.844 5.92488C163.27 6.01373 164.753 5.92488 166.077 6.46499C167.856 7.18748 169.023 8.91537 169.818 10.6737C170.709 12.6564 171.263 14.8215 171.17 16.9867C170.973 21.6092 167.919 26.1452 169.262 30.5737C169.617 31.7544 170.284 32.9656 169.928 34.1463C169.409 35.8696 167.185 36.2624 165.387 36.3442C164.919 35.3178 165.169 34.13 165.178 33.003C165.188 31.876 164.772 30.5456 163.686 30.2416C161.516 29.6361 160.02 33.6811 157.887 32.9516C156.262 32.3927 156.682 29.912 155.738 28.4787C154.992 27.3423 153.495 27.0243 152.335 26.3135C149.863 24.7961 149.938 22.3691 148.79 20.073C147.578 17.6554 145.036 18.3662 142.829 19.7878Z" fill="#99607E"/>
<path d="M108.524 108.761L106.74 109.383C106.74 109.383 107.441 119.933 105.103 122.959C102.764 125.984 112.783 133.506 112.783 133.506C112.783 133.506 126.515 133.429 126.903 132.337C127.291 131.245 126.201 112.79 126.201 112.79C126.201 112.79 118.83 109.919 119.45 105.343C119.45 105.343 117.2 116.124 113.865 115.659C110.531 115.194 106.744 112.409 108.524 108.761Z" fill="#E8F5FF"/>
<path opacity="0.1" d="M114.476 118.923C117.076 118.923 119.183 116.996 119.183 114.619C119.183 112.241 117.076 110.314 114.476 110.314C111.876 110.314 109.768 112.241 109.768 114.619C109.768 116.996 111.876 118.923 114.476 118.923Z" fill="black"/>
<path d="M119.623 109.072C119.623 109.072 118.687 80.5282 110.545 86.888C102.402 93.2478 102.322 100.854 103.873 103.101C105.423 105.348 110.395 116.597 110.395 116.597C111.173 117.047 112.046 117.307 112.944 117.355C113.841 117.403 114.737 117.238 115.559 116.873C116.38 116.508 117.103 115.954 117.669 115.255C118.235 114.557 118.627 113.735 118.814 112.856L119.623 109.072Z" fill="#FFC1C7"/>
<path opacity="0.1" d="M170.419 36.7698C170.381 36.6444 170.308 36.5324 170.209 36.4471C169.806 36.08 168.941 35.9514 167.636 36.0637L167.69 36.6809C169.43 36.5313 169.774 36.8773 169.818 36.9358V36.9943L169.872 37.0714C170.089 37.3629 170.243 37.6965 170.323 38.0508C170.404 38.4051 170.409 38.7724 170.34 39.129C169.958 41.0346 167.618 42.552 167.594 42.5684L167.538 42.6011L167.503 42.6549C166.493 44.1537 160.78 48.3834 159.285 49.4776L159.154 49.328C158.485 49.9079 152.606 55.0541 152.288 57.0252C152.082 58.2621 150.689 58.7414 150.183 58.8747C149.65 58.4702 147.92 57.093 147.019 55.5498C146.175 54.0978 149.573 51.264 149.872 50.158L149.405 49.6787C149.356 49.8564 144.992 53.9342 146.206 56.0174C147.178 57.6892 148.956 59.1202 149.578 59.5925C149.379 61.3975 148.142 71.9964 146.241 74.5075C143.879 77.629 141.893 93.36 142.113 98.8524C142.307 103.732 141.033 112.949 136.776 116.908C136.04 117.623 135.151 118.163 134.176 118.487C133.201 118.81 132.166 118.91 131.147 118.778H131.096H131.045C130.984 118.778 124.81 119.409 119.623 115.037C115.378 111.467 112.974 105.64 112.474 97.7137H112.371L112.329 95.4059C113.48 95.2263 114.516 94.6078 115.22 93.6802C115.925 92.7526 116.242 91.5882 116.105 90.4316C115.969 89.2751 115.39 88.2164 114.489 87.4781C113.588 86.7398 112.436 86.3792 111.275 86.4723C110.114 86.5653 109.034 87.1046 108.263 87.977C107.491 88.8493 107.087 89.9867 107.137 91.1502C107.187 92.3138 107.685 93.4128 108.528 94.2164C109.371 95.02 110.493 95.4657 111.658 95.4597H111.709L111.751 97.7534L111.545 97.7675C112.06 105.951 114.586 112.004 119.029 115.743C122.406 118.541 126.72 119.953 131.098 119.692C131.409 119.726 131.721 119.743 132.034 119.744C134.041 119.754 135.972 118.978 137.412 117.581C141.896 113.407 143.259 103.851 143.046 98.8056C142.812 92.9859 144.896 77.8207 146.987 75.0593C149.035 72.3494 150.277 61.7903 150.494 59.7445C151.236 59.5364 152.913 58.8793 153.198 57.1725C153.404 55.9379 157.33 52.1338 159.746 50.0271L159.673 49.9429C160.974 48.9936 165.017 46.0008 167.021 44.0788C167.643 43.4826 168.261 42.8864 168.906 42.3182C169.683 41.6308 170.669 40.5389 170.929 39.2482C171.017 38.8222 171.018 38.3826 170.93 37.9563C170.843 37.5301 170.669 37.1263 170.419 36.7698Z" fill="black"/>
<path d="M149.498 59.4451C149.4 59.3773 147.071 57.7102 145.904 55.7041C144.693 53.6208 149.056 49.5454 149.103 49.3677L149.571 49.847C149.274 50.9506 145.876 53.7868 146.72 55.2364C147.784 57.0672 150.024 58.6688 150.048 58.6852L149.498 59.4451Z" fill="#353146"/>
<path d="M158.981 49.9312L158.616 49.4285C158.691 49.3747 166.037 44.0624 167.194 42.3439L167.232 42.2924L167.286 42.2574C167.309 42.241 169.65 40.7259 170.031 38.8179C170.101 38.4617 170.096 38.0947 170.015 37.7407C169.935 37.3866 169.781 37.0535 169.563 36.7627L169.51 36.6832V36.6271C169.463 36.5663 169.119 36.2226 167.379 36.3722L167.325 35.7526C168.633 35.6404 169.496 35.769 169.898 36.1361C169.998 36.2222 170.072 36.3349 170.111 36.4611C170.363 36.8166 170.541 37.2201 170.632 37.6468C170.723 38.0734 170.725 38.5142 170.639 38.9419C170.379 40.2349 169.395 41.3268 168.616 42.0119C167.973 42.58 167.353 43.1809 166.734 43.7725C164.383 46.0241 159.239 49.7465 158.981 49.9312Z" fill="#E8F5FF"/>
<path d="M112.027 94.5918L111.407 94.6031L111.477 98.3693L112.096 98.3579L112.027 94.5918Z" fill="#E8F5FF"/>
<path d="M111.356 95.1627C113.855 95.1627 115.881 93.137 115.881 90.6383C115.881 88.1396 113.855 86.114 111.356 86.114C108.857 86.114 106.831 88.1396 106.831 90.6383C106.831 93.137 108.857 95.1627 111.356 95.1627Z" fill="#0970E9"/>
<path d="M111.356 94.3958C113.432 94.3958 115.114 92.7135 115.114 90.6384C115.114 88.5632 113.432 86.881 111.356 86.881C109.281 86.881 107.598 88.5632 107.598 90.6384C107.598 92.7135 109.281 94.3958 111.356 94.3958Z" fill="#E8F5FF"/>
<path d="M131.739 119.442C131.427 119.443 131.114 119.426 130.804 119.393C126.426 119.651 122.113 118.24 118.734 115.444C114.291 111.703 111.77 105.656 111.251 97.4658L112.186 97.4073C112.687 105.334 115.091 111.163 119.338 114.731C124.525 119.091 130.696 118.472 130.757 118.472H130.808H130.86C131.879 118.603 132.914 118.503 133.889 118.179C134.864 117.855 135.753 117.316 136.491 116.601C140.745 112.643 142.02 103.426 141.825 98.546C141.592 93.049 143.577 77.3179 145.941 74.1988C148.011 71.4655 149.295 59.1458 149.309 59.0219L149.344 58.6712L149.69 58.6104C149.711 58.6104 151.732 58.2269 151.984 56.7165C152.312 54.7478 158.181 49.6015 158.848 49.0193L159.458 49.7207C157.033 51.8251 153.107 55.6316 152.91 56.8685C152.625 58.58 150.948 59.2347 150.209 59.4404C149.975 61.4886 148.743 72.0454 146.701 74.7553C144.611 77.5167 142.527 92.6819 142.761 98.5016C142.962 103.547 141.613 113.106 137.13 117.277C135.686 118.677 133.75 119.455 131.739 119.442Z" fill="#353146"/>
<g opacity="0.1">
<path d="M169.795 23.959C170.178 22.5421 170.641 21.1158 170.964 19.6802C170.578 21.1228 170.113 22.5421 169.795 23.959Z" fill="black"/>
<path d="M165.882 35.0933C165.415 34.0668 165.665 32.879 165.674 31.752C165.684 30.6251 165.267 29.3063 164.182 28.9907C162.012 28.3851 160.515 32.4324 158.383 31.7006C156.746 31.1418 157.178 28.661 156.233 27.2277C155.487 26.0914 153.993 25.7734 152.833 25.0626C150.359 23.5451 150.434 21.1181 149.288 18.8221C148.083 16.4138 145.546 17.1246 143.338 18.5462C141.662 19.6264 140.219 21.0737 138.427 21.9365C136.877 22.6824 135.135 22.9536 133.416 22.9933C131.323 23.0424 129.045 22.6707 127.607 21.1509C126.498 19.9818 126.098 18.2679 126.328 16.6616C126.288 16.7715 126.253 16.8814 126.218 16.9913C125.656 18.8314 125.984 20.9942 127.296 22.3924C128.734 23.9122 131.012 24.2817 133.105 24.2349C134.826 24.1951 136.566 23.9239 138.119 23.178C139.915 22.3129 141.358 20.868 143.03 19.7877C145.237 18.3661 147.777 17.6553 148.979 20.0636C150.125 22.3597 150.053 24.7867 152.524 26.3042C153.694 27.0056 155.179 27.3329 155.927 28.4693C156.862 29.9072 156.449 32.3833 158.076 32.9422C160.207 33.6717 161.703 29.6267 163.874 30.2322C164.959 30.5362 165.377 31.869 165.366 32.9936C165.354 34.1183 165.111 35.3084 165.574 36.3348C167.372 36.253 169.596 35.8672 170.118 34.137C170.189 33.8886 170.222 33.6308 170.216 33.3724C169.456 34.6841 167.501 35.0208 165.882 35.0933Z" fill="black"/>
</g>
<path opacity="0.1" d="M208.147 92.7053L210.863 95.5766C210.863 95.5766 213.035 111.399 214.12 112.879C215.205 114.359 217.768 120.246 215.362 124.668C215.362 124.668 214.586 127.074 215.051 128.082C215.516 129.089 211.562 134.133 211.562 134.133C211.562 134.133 206.363 138.786 205.276 139.485C204.188 140.184 198.449 145.767 196.511 145.844C194.572 145.922 193.938 148.328 193.938 148.328L182.998 148.716C182.998 148.716 176.955 148.4 175.641 149.253C175.641 149.253 176.343 140.022 169.591 133.971L178.202 130.869C178.202 130.869 181.462 129.466 182.47 128C183.104 127.101 184.003 126.423 185.042 126.061C185.042 126.061 187.446 124.355 187.524 123.424C187.601 122.493 190.463 121.352 190.463 121.352L188.842 107.522L189.696 84.5616C189.696 84.5616 192.411 65.3233 198.152 66.4105C203.894 67.4977 208.147 92.7053 208.147 92.7053Z" fill="black"/>
<path d="M209.083 92.7053L211.798 95.5766C211.798 95.5766 213.971 111.399 215.056 112.879C216.141 114.359 218.704 120.246 216.298 124.668C216.298 124.668 215.523 127.074 215.989 128.082C216.454 129.089 212.497 134.133 212.497 134.133C212.497 134.133 207.299 138.786 206.211 139.485C205.124 140.184 199.385 145.767 197.446 145.844C195.508 145.922 194.874 148.328 194.874 148.328L183.934 148.716C183.934 148.716 177.886 148.4 176.577 149.253C176.577 149.253 177.278 140.022 170.527 133.971L179.138 130.869C179.138 130.869 182.397 129.466 183.405 128C184.039 127.101 184.939 126.423 185.978 126.061C185.978 126.061 188.382 124.355 188.459 123.424C188.536 122.493 191.399 121.352 191.399 121.352L189.778 107.522L190.632 84.5616C190.632 84.5616 193.347 65.3233 199.088 66.4105C204.829 67.4977 209.083 92.7053 209.083 92.7053Z" fill="#E8F5FF"/>
<path opacity="0.1" d="M198.99 115.9C198.99 115.9 206.981 113.795 209.076 116.367C211.171 118.939 198.99 115.9 198.99 115.9Z" fill="black"/>
<path opacity="0.1" d="M197.128 119.428C199.843 121.329 208.222 121.406 208.222 121.406L197.128 119.428Z" fill="black"/>
<path opacity="0.1" d="M201.239 128.93C201.473 129.007 206.999 134.904 209.319 133.12C211.639 131.336 201.239 128.93 201.239 128.93Z" fill="black"/>
<path opacity="0.1" d="M126.816 79.441C126.816 79.441 128.439 90.6127 127.64 95.1628C126.84 99.7128 129.758 105.35 129.758 105.35L126.816 79.441Z" fill="black"/>
<path d="M90.8865 83.984C89.0157 85.45 87.65 88.9198 86.6607 92.7334C84.9349 99.3854 84.3713 107.099 84.3713 107.099C84.3713 107.099 69.4745 103.685 70.5596 102.135C71.2425 101.16 70.3258 93.8136 69.5611 88.4873C69.105 85.3401 68.6981 82.8968 68.6981 82.8968C68.6981 82.8968 96.008 79.9484 90.8865 83.984Z" fill="#FFCCD0"/>
<path opacity="0.1" d="M90.8865 83.6731C89.0157 85.1414 87.65 88.6089 86.6607 92.4224C83.6927 93.3235 80.5362 93.4048 77.5257 92.6576C74.5152 91.9105 71.7631 90.3628 69.5611 88.1787C69.105 85.0292 68.6981 82.5858 68.6981 82.5858C68.6981 82.5858 96.008 79.6398 90.8865 83.6731Z" fill="black"/>
<path d="M98.8938 75.3165C98.8953 79.3832 97.4578 83.3195 94.8358 86.4285C92.2137 89.5375 88.5761 91.6188 84.5667 92.3041C80.5573 92.9894 76.4347 92.2345 72.9286 90.173C69.4224 88.1114 66.7587 84.8762 65.4089 81.0398C64.0591 77.2035 64.1103 73.0134 65.5533 69.2112C66.9963 65.4089 69.7382 62.2397 73.2937 60.2643C76.8491 58.2889 80.9889 57.6348 84.9804 58.4178C88.9718 59.2007 92.5575 61.3702 95.1029 64.5423C97.5558 67.5978 98.893 71.3984 98.8938 75.3165Z" fill="#FFCCD0"/>
<path opacity="0.1" d="M112.476 183.002H107.565L107.151 174.33L106.719 165.354C106.719 165.354 107.834 165.188 109.612 164.94L110.33 164.844H110.388C110.776 166.666 111.16 168.536 111.529 170.404C112.144 173.721 112.464 177.085 112.486 180.458C112.486 180.692 112.486 180.926 112.486 181.146C112.5 181.77 112.486 182.394 112.476 183.002Z" fill="black"/>
<path d="M111.534 183.002H49.9451C50.2117 182.397 50.3894 182.03 50.3894 182.03C50.3894 182.03 55.3168 160.477 57.8214 151.358C57.8222 151.35 57.8222 151.342 57.8214 151.334C58.1343 150.096 58.5121 148.874 58.9533 147.675C58.9818 147.594 59.0186 147.515 59.0632 147.441C60.3026 145.426 61.8554 143.254 59.6829 140.151C57.5104 137.048 58.2798 123.396 58.2798 123.396C58.2798 123.396 60.9177 111.759 63.7099 105.553C64.1337 104.592 64.7351 103.72 65.4826 102.982C65.7256 102.744 65.985 102.523 66.259 102.322C66.4672 102.166 66.6843 102.021 66.9091 101.89L66.9535 101.862C68.1265 101.197 69.4291 100.792 70.7724 100.676C71.7267 100.576 72.69 100.603 73.6372 100.756C78.1647 101.42 81.7895 102.53 84.6706 103.795C92.4791 107.225 94.8434 111.822 94.8902 111.918L94.9089 111.958C95.2223 112.69 99.8059 123.389 101.457 128.381C101.885 129.681 102.119 130.595 102.025 130.845C101.557 132.084 105.594 147.598 105.594 147.598C105.594 147.598 107.465 155.08 109.336 163.851C109.417 164.215 109.495 164.58 109.569 164.95C109.904 166.542 110.236 168.164 110.556 169.785C111.177 173.124 111.497 176.512 111.513 179.909C111.547 180.967 111.554 181.999 111.534 183.002Z" fill="#0970E9"/>
<path opacity="0.1" d="M70.4052 95.3404C70.4052 95.3404 66.156 93.7037 66.2075 96.1868C66.2589 98.6699 67.2435 99.8577 66.9325 100.22C66.6214 100.583 67.0868 102.755 67.0868 102.755C67.0868 102.755 72.828 102.755 75.4659 103.942C78.1038 105.13 87.8277 107.51 89.0694 108.235C90.3112 108.96 94.9159 112.21 94.9159 112.21L95.3298 106.056C95.3298 106.056 90.5708 102.126 82.7623 100.11C74.9538 98.0947 70.4052 95.3404 70.4052 95.3404Z" fill="black"/>
<path d="M70.4052 95.0295C70.4052 95.0295 66.156 93.3928 66.2075 95.8759C66.2589 98.359 67.2435 99.5468 66.9325 99.9092C66.6214 100.272 67.0868 102.444 67.0868 102.444C67.0868 102.444 72.828 102.444 75.4659 103.634C78.1038 104.824 87.8277 107.202 89.0694 107.924C90.3112 108.647 94.9159 111.899 94.9159 111.899L95.3345 105.764C95.3345 105.764 90.5755 101.834 82.767 99.818C74.9585 97.8025 70.4052 95.0295 70.4052 95.0295Z" fill="#EDF4FF"/>
<path opacity="0.1" d="M83.2323 109.839C83.2323 109.839 91.3518 118.628 90.9379 121.062C90.524 123.496 83.2323 109.839 83.2323 109.839Z" fill="black"/>
<path opacity="0.1" d="M70.0428 141.589C70.0428 141.589 64.0911 147.072 62.3371 147.383C60.5832 147.694 63.6818 148.727 65.6977 147.902C67.7135 147.077 72.0118 144.904 72.0118 144.904L70.0428 141.589Z" fill="black"/>
<path d="M113.952 183.002H100.072C98.1314 181.319 96.2956 179.759 95.1263 178.822C93.2554 177.321 91.9061 175.111 91.0455 173.334C90.8514 172.93 90.683 172.551 90.5403 172.207C90.2849 171.615 90.0601 171.01 89.8668 170.395L100.145 164.292C100.713 164.775 101.247 165.297 101.742 165.854L101.866 165.997C102.437 166.67 102.939 167.435 102.984 168.062C103.035 168.791 105.065 171.613 107.14 174.323C109.244 177.08 111.4 179.715 111.543 179.893C111.543 179.893 111.899 180.377 112.479 181.12C112.888 181.658 113.393 182.303 113.952 183.002Z" fill="#FFCCD0"/>
<path opacity="0.1" d="M95.1029 64.5423C94.6095 65.6553 94.1675 66.8103 94.102 68.0496C93.9172 71.6269 94.2166 79.6257 90.255 81.4214C88.293 82.3053 86.1929 80.3646 84.0414 80.3178C82.4933 80.2851 81.0738 81.2671 80.129 82.4947C79.1842 83.7222 78.5972 85.1788 77.912 86.5677C77.2883 87.8283 76.5698 89.0398 75.7629 90.1918C75.5216 90.5444 75.256 90.8796 74.9677 91.1949C72.5521 90.1758 70.4011 88.6188 68.6785 86.6426C66.9559 84.6665 65.7072 82.3232 65.0275 79.7914C64.3479 77.2596 64.2553 74.6062 64.7567 72.0332C65.2581 69.4602 66.3403 67.0356 67.9209 64.9441C69.5015 62.8526 71.5387 61.1495 73.8774 59.9645C76.216 58.7794 78.7944 58.1438 81.416 58.1059C84.0376 58.0681 86.6332 58.629 89.0051 59.7461C91.377 60.8631 93.4626 62.5067 95.1029 64.5517V64.5423Z" fill="black"/>
<path d="M93.791 67.4182C93.6039 70.9956 93.9056 78.9944 89.9417 80.7877C87.9796 81.6716 85.8796 79.7332 83.7281 79.6865C82.1799 79.6514 80.7627 80.6358 79.8156 81.8609C78.8685 83.0861 78.2862 84.5452 77.5987 85.9363C76.9747 87.1969 76.2563 88.4084 75.4495 89.5605C74.9677 90.2432 74.4346 90.9283 73.6932 91.3118C72.4023 91.9851 70.8378 91.6064 69.4534 91.1738C67.6574 90.608 65.8878 89.9704 64.1448 89.2612C64.1848 88.9981 64.2051 88.7324 64.2056 88.4662C64.1542 88.5644 64.098 88.6556 64.0419 88.7538L63.932 88.9455C63.7332 89.2963 63.5391 89.647 63.3614 90.0071C63.2936 90.145 63.2281 90.2876 63.1696 90.4303C62.9344 90.9611 62.7867 91.5264 62.7323 92.1044C62.613 93.6639 63.3824 95.144 64.0653 96.5469C66.6915 101.974 68.3145 108.319 66.3384 114.013C65.4825 116.489 63.9998 118.689 62.9171 121.081C61.0243 125.318 60.4672 130.03 61.3198 134.591C61.86 137.425 62.9428 140.231 62.6762 143.104C62.2085 148.049 57.9429 151.73 53.6703 154.259C51.3621 155.62 48.5371 156.831 46.0863 155.756C47.6485 153.932 48.0507 151.409 48.3875 149.029C49.3089 142.537 50.2326 136.041 51.1587 129.543C51.5282 126.957 51.8969 124.371 52.2648 121.785C52.9524 116.926 53.6493 112.014 53.219 107.125C52.9056 103.522 52.0216 99.6964 53.5838 96.4346C54.4093 94.7067 55.8803 93.2758 56.3386 91.4146C56.7151 89.9019 56.3644 88.2932 56.6122 86.7524C56.7479 86.0513 56.9776 85.3718 57.2951 84.7322C57.6994 83.8643 58.2271 83.0594 58.862 82.3426C58.2352 82.1602 57.6506 81.91 57.2951 81.3863C58.3007 80.7316 58.4527 79.2563 57.9967 78.148C57.5407 77.0397 56.6286 76.1956 55.8078 75.3211C54.9869 74.4467 54.1965 73.4272 54.0936 72.2348C53.8948 69.9644 56.1632 68.2062 56.5631 65.9662C56.9677 63.6865 55.3681 61.4699 55.4967 59.1622C55.6464 56.3728 58.2095 54.3456 60.7398 53.1695C64.5582 51.4022 68.7763 50.6762 72.9659 51.0652C76.3756 51.3878 79.6753 52.4423 83.0756 52.8515C85.1265 53.0853 87.2055 53.1087 89.2424 53.4688C91.2793 53.8289 93.3209 54.5888 94.7545 56.0828C98.5336 60.0226 94.0061 63.2656 93.791 67.4182Z" fill="#FFE0D0"/>
<path opacity="0.1" d="M90.6292 173.336C89.4365 172.82 87.2663 173.128 83.541 171.994C79.8156 170.86 79.0977 165.735 79.0977 165.735V165.719C79.0533 165.602 78.7072 164.84 76.3639 162.169C73.7751 159.221 68.1789 144.329 68.1789 144.329C68.1789 144.329 63.2164 139.001 63.3731 137.037C63.5298 135.073 62.4914 129.847 62.5943 124.002C62.6972 118.156 73.7657 114.279 73.7657 114.279C95.0772 110.503 90.0586 135.068 89.4903 136.929C88.9221 138.79 91.871 143.817 91.871 143.817C91.4547 146.006 93.5782 149.394 93.5782 149.394C93.5782 149.394 94.0927 152.391 94.1979 153.53C94.2037 153.583 94.2155 153.634 94.233 153.684C94.5744 154.758 97.3573 155.73 98.4892 156.322C99.6795 156.944 103.508 162.373 103.508 162.373C104.333 166.359 91.8172 173.86 90.6292 173.336Z" fill="black"/>
<path d="M91.249 172.401C90.0586 171.882 87.8861 172.193 84.1631 171.057C80.4401 169.92 79.7198 164.8 79.7198 164.8V164.784C79.6777 164.664 79.3293 163.904 76.986 161.234C74.3972 158.286 68.801 143.392 68.801 143.392C68.801 143.392 63.8385 138.065 63.9929 136.101C64.1472 134.137 63.1136 128.912 63.2164 123.071C63.3193 117.23 74.3808 113.356 74.3808 113.356C95.6923 109.58 90.6737 134.144 90.1054 136.006C89.5371 137.867 92.4861 142.894 92.4861 142.894C92.0698 145.082 94.1933 148.47 94.1933 148.47C94.1933 148.47 94.7077 151.468 94.8153 152.606C94.8192 152.659 94.8302 152.711 94.8481 152.761C95.1895 153.834 97.9724 154.807 99.1066 155.398C100.295 156.018 104.125 161.449 104.125 161.449C104.955 165.429 92.4393 172.93 91.249 172.401Z" fill="#0970E9"/>
<path opacity="0.1" d="M74.8018 126.181C74.8018 126.181 84.1116 136.001 86.5414 136.001C88.9712 136.001 74.8018 126.181 74.8018 126.181Z" fill="black"/>
<path d="M91.249 172.401C90.0587 171.882 87.8862 172.193 84.1631 171.057C80.4401 169.92 79.7198 164.8 79.7198 164.8V164.783C82.187 163.147 88.4357 158.524 90.8983 156.834C92.6311 155.648 94.046 153.906 94.8738 152.751C95.2153 153.825 97.9982 154.797 99.1324 155.389C100.32 156.008 104.151 161.44 104.151 161.44C104.955 165.429 92.4394 172.93 91.249 172.401Z" fill="#EDF4FF"/>
<g opacity="0.1">
<path d="M57.3091 81.4121C57.3208 81.4308 57.3371 81.4471 57.3512 81.4659C57.4213 81.377 57.4938 81.2882 57.5687 81.204C57.489 81.2815 57.402 81.3511 57.3091 81.4121Z" fill="black"/>
<path d="M62.7346 92.1302C62.8329 90.8325 63.5274 89.6892 64.1775 88.5481C63.7519 88.3845 63.3263 88.2185 62.9054 88.0454C62.9454 87.7831 62.9658 87.5182 62.9662 87.2528C62.309 88.4219 61.5934 89.5723 61.4929 90.8886C61.3736 92.4505 62.143 93.9282 62.8258 95.3311C65.4544 100.756 67.075 107.101 65.0989 112.797C64.2407 115.271 62.7604 117.473 61.6776 119.865C59.7855 124.101 59.2292 128.813 60.0827 133.373C60.6182 136.209 61.7033 139.012 61.4367 141.886C60.969 146.831 56.7058 150.511 52.4309 153.039C50.684 154.072 48.6424 155.019 46.6897 154.952C46.5089 155.243 46.3073 155.52 46.0863 155.782C48.5395 156.864 51.3621 155.646 53.6703 154.281C57.9476 151.755 62.2202 148.084 62.6879 143.13C62.9545 140.256 61.8694 137.453 61.3315 134.617C60.4777 130.057 61.0324 125.346 62.9217 121.109C63.9975 118.72 65.4942 116.515 66.3431 114.041C68.3192 108.345 66.6962 102 64.07 96.575C63.3894 95.1628 62.6154 93.6921 62.7346 92.1302Z" fill="black"/>
<path d="M94.7497 56.111C94.5197 55.875 94.2727 55.6562 94.0108 55.4563C96.8451 59.1319 92.7526 62.2556 92.5491 66.2118C92.3667 69.7892 92.6661 77.7903 88.7022 79.5813C86.7425 80.4675 84.6401 78.5268 82.4909 78.4801C80.9404 78.4473 79.5233 79.4317 78.5761 80.6569C77.629 81.8821 77.0467 83.3411 76.3615 84.7299C75.7364 85.9903 75.0172 87.2018 74.21 88.3541C73.7423 89.0392 73.1951 89.7219 72.4514 90.1077C71.1652 90.7787 69.6007 90.4023 68.2139 89.9674C66.8653 89.5434 65.5292 89.0758 64.2056 88.5645C64.2028 88.808 64.1825 89.0511 64.1448 89.2917C65.8894 90.0025 67.6597 90.64 69.4557 91.2043C70.8401 91.6392 72.4046 92.0156 73.6932 91.3446C74.4345 90.9588 74.9724 90.2737 75.4518 89.5886C76.2596 88.438 76.9781 87.2271 77.6009 85.9668C78.2885 84.578 78.8685 83.1166 79.8179 81.8914C80.7674 80.6662 82.1822 79.6842 83.7304 79.7169C85.8819 79.7637 87.9842 81.7044 89.944 80.8182C93.9079 79.0272 93.6062 71.026 93.7909 67.4487C94.0061 63.2891 98.5336 60.0484 94.7497 56.111Z" fill="black"/>
</g>
<path opacity="0.1" d="M63.9344 88.9479C63.7356 89.2986 63.5415 89.6494 63.3638 90.0094C63.2959 90.1474 63.2305 90.29 63.172 90.4327C61.9466 89.1981 58.9626 86.2637 57.2975 85.3542C57.7023 84.4866 58.23 83.6818 58.8643 82.9646C58.8643 82.9646 62.8329 85.0619 63.9344 88.9479Z" fill="black"/>
<path d="M64.0443 88.7562C63.1252 84.5966 58.8643 82.345 58.8643 82.345C58.2295 83.0618 57.7018 83.8666 57.2975 84.7346C59.0538 85.6955 62.2903 88.9175 63.3638 90.0094L64.0443 88.7562Z" fill="#0970E9"/>
<path fill-rule="evenodd" clip-rule="evenodd" d="M62.9681 5.30505C61.6439 11.0565 63.1782 17.5842 59.5264 22.2305C55.6853 27.1177 49.4593 30.0062 43.2361 30.4106C37.2658 30.7986 32.335 26.6481 26.8104 24.3564C20.611 21.7847 12.1161 22.0833 8.94973 16.1876C5.78692 10.2986 7.40846 1.70173 12.0659 -3.09712C16.6364 -7.80645 24.6754 -4.77212 31.0103 -6.54286C33.3193 -7.18829 34.8662 -9.11874 37.0597 -10.0835C40.1537 -11.4443 43.0441 -12.9891 46.4114 -13.3168C53.6345 -14.0197 62.8395 -18.4731 67.6517 -13.0608C71.9654 -8.20895 64.4211 -1.00599 62.9681 5.30505Z" fill="#0974F1"/>
<path fill-rule="evenodd" clip-rule="evenodd" d="M267.991 173.529C266.666 179.28 268.201 185.808 264.549 190.454C260.708 195.341 254.482 198.23 248.259 198.634C242.288 199.022 237.357 194.872 231.833 192.58C225.633 190.008 217.139 190.307 213.972 184.411C210.809 178.522 212.431 169.925 217.088 165.127C221.659 160.417 229.698 163.452 236.033 161.681C238.342 161.035 239.889 159.105 242.082 158.14C245.176 156.779 248.067 155.235 251.434 154.907C258.657 154.204 267.862 149.75 272.674 155.163C276.988 160.015 269.444 167.218 267.991 173.529Z" fill="#0974F1"/>
</g>
<defs>
<linearGradient id="paint0_linear_18_429" x1="170.723" y1="22.3083" x2="170.723" y2="18.0107" gradientUnits="userSpaceOnUse">
<stop stop-color="#808080" stop-opacity="0.25"/>
<stop offset="0.54" stop-color="#808080" stop-opacity="0.12"/>
<stop offset="1" stop-color="#808080" stop-opacity="0.1"/>
</linearGradient>
<linearGradient id="paint1_linear_18_429" x1="131.622" y1="183.002" x2="131.622" y2="-2.88929e-05" gradientUnits="userSpaceOnUse">
<stop stop-color="#808080" stop-opacity="0.25"/>
<stop offset="0.54" stop-color="#808080" stop-opacity="0.12"/>
<stop offset="1" stop-color="#808080" stop-opacity="0.1"/>
</linearGradient>
<clipPath id="clip0_18_429">
<rect width="254" height="183" fill="white"/>
</clipPath>
</defs>
</svg>
